<svg width="512" height="512" viewBox="0 0 512 512" fill="none" xmlns="http://www.w3.org/2000/svg">
  <rect width="512" height="512" rx="112" fill="#578E7E"/>
  <circle cx="256" cy="256" r="160" fill="#FFFAEC" opacity="0.15"/>
  <g transform="translate(256,256)">
    <path d="M0 -90 C40 -80 90 -40 90 20 C90 80 50 110 0 120 C-50 110 -90 80 -90 20 C-90 -40 -40 -80 0 -90 Z" fill="#FFFAEC" opacity="0.9"/>
    <path d="M0 -90 C0 -20 0 60 0 120" stroke="#578E7E" stroke-width="8" stroke-linecap="round"/>
    <path d="M-90 20 C-40 20 40 20 90 20" stroke="#578E7E" stroke-width="6" stroke-linecap="round" opacity="0.5"/>
    <path d="M-70 -20 C-20 -20 20 -20 60 -10" stroke="#578E7E" stroke-width="4" stroke-linecap="round" opacity="0.4"/>
  </g>
</svg>
